<svg height="512pt" viewBox="0 -61 512 512" width="512pt" xmlns="http://www.w3.org/2000/svg"><path d="m377 0h-121l-30 37.5 30 37.5h121c33.085938 0 60 26.914062 60 60s-26.914062 60-60 60h-121l-30 37.5 30 37.5h121c74.4375 0 135-60.5625 135-135s-60.5625-135-135-135zm0 0" fill="#0a77e8"/><path d="m256 120-30 37.5 30 37.5c33.085938 0 60 26.914062 60 60s-26.914062 60-60 60l-30 37.5 30 37.5c74.4375 0 135-60.5625 135-135s-60.5625-135-135-135zm0 0" fill="#13bdf7"/><path d="m135 195h121v-75h-121c-74.4375 0-135 60.5625-135 135s60.5625 135 135 135h121v-75h-121c-33.085938 0-60-26.914062-60-60s26.914062-60 60-60zm0 0" fill="#18e0ff"/><path d="m256 75v-75c-74.4375 0-135 60.5625-135 135s60.5625 135 135 135v-75c-33.085938 0-60-26.914062-60-60s26.914062-60 60-60zm0 0" fill="#0f9af0"/></svg>